<mxfile host="app.diagrams.net" modified="2023-12-09T15:38:26.480Z" agent="Mozilla/5.0 (Windows NT 10.0; Win64; x64) AppleWebKit/537.36 (KHTML, like Gecko) Chrome/119.0.0.0 Safari/537.36" version="22.1.7" etag="6PPibYgII1S5M6MfRwza" type="github">
  <diagram name="Page-1" id="SZl-h884Wd9m_t2f9Ym8">
    <mxGraphModel>
      <root>
        <mxCell id="0" />
        <mxCell id="1" parent="0" />
      </root>
    </mxGraphModel>
  </diagram>
</mxfile>
